<svg id="fi_9544001" enable-background="new 0 0 512 512" height="512" viewBox="0 0 512 512" width="512" xmlns="http://www.w3.org/2000/svg"><g><g><path d="m238.5 376.509h35v66.413h-35z" fill="#dff6fd"></path><path d="m239.122 249.368h32.19v418.696h-32.19z" fill="#dff6fd" transform="matrix(0 -1 1 0 -203.499 713.933)"></path><path d="m289.848 430.868v55.696c0 3.314-2.686 6-6 6h-55.696c-3.314 0-6-2.686-6-6v-55.696c0-3.314 2.686-6 6-6h55.696c3.314 0 6 2.686 6 6z" fill="#fe5694"></path><path d="m289.848 430.874v55.69c0 3.31-2.69 6-6 6h-25c3.31 0 6-2.69 6-6v-55.69c0-3.32-2.69-6-6-6h25c3.31 0 6 2.68 6 6z" fill="#fd3581"></path><path d="m54.196 485.064h-40.696c-3.314 0-6-2.686-6-6v-40.696c0-3.314 2.686-6 6-6h40.696c3.314 0 6 2.686 6 6v40.696c0 3.313-2.687 6-6 6z" fill="#fe5694"></path><path d="m60.196 438.374v40.69c0 3.32-2.69 6-6 6h-22c3.31 0 6-2.68 6-6v-40.69c0-3.31-2.69-6-6-6h22c3.31 0 6 2.69 6 6z" fill="#fd3581"></path><path d="m498.5 485.064h-40.696c-3.314 0-6-2.686-6-6v-40.696c0-3.314 2.686-6 6-6h40.696c3.314 0 6 2.686 6 6v40.696c0 3.313-2.686 6-6 6z" fill="#fe5694"></path><path d="m504.5 438.374v40.69c0 3.32-2.69 6-6 6h-22c3.31 0 6-2.68 6-6v-40.69c0-3.31-2.69-6-6-6h22c3.31 0 6 2.69 6 6z" fill="#fd3581"></path><path d="m436.304 137.612h-360.608v-104.174c0-7.732 6.268-14 14-14h332.609c7.732 0 14 6.268 14 14v104.174z" fill="#dff6fd"></path><path d="m436.309 33.436v104.18h-25v-104.18c0-7.73-6.27-14-14-14h25c7.73 0 14 6.27 14 14z" fill="#d8ecfe"></path><path d="m153.496 120.028-18.934-26.924c-2.996-4.261-7.879-6.796-13.088-6.796h-64.785c-8.837 0-16 7.163-16 16v259.817c0 14.359 11.641 26 26 26h378.622c14.359 0 26-11.641 26-26v-221.849c0-8.837-7.163-16-16-16h-293.635c-3.256 0-6.308-1.585-8.18-4.248z" fill="#fedf30"></path><path d="m471.309 140.276v221.85c0 14.36-11.64 26-26 26h-25c14.36 0 26-11.64 26-26v-221.85c0-8.84-7.16-16-16-16h25c8.84 0 16 7.16 16 16z" fill="#fac600"></path><path d="m80.689 340.124v-29.044c0-4.418 3.582-8 8-8h110.446c4.418 0 8 3.582 8 8v29.044c0 4.418-3.582 8-8 8h-110.446c-4.418 0-8-3.582-8-8z" fill="#dff6fd"></path><path d="m207.139 311.076v29.05c0 4.42-3.59 8-8 8h-25c4.41 0 8-3.58 8-8v-29.05c0-4.41-3.59-8-8-8h25c4.41 0 8 3.59 8 8z" fill="#d8ecfe"></path></g><g><path d="m88.69 295.575c-8.547 0-15.5 6.953-15.5 15.5v29.043c0 8.547 6.953 15.5 15.5 15.5h110.445c8.547 0 15.5-6.953 15.5-15.5v-29.043c0-8.547-6.953-15.5-15.5-15.5zm110.946 15.5v29.043c0 .276-.225.5-.5.5h-110.446c-.275 0-.5-.224-.5-.5v-29.043c0-.276.225-.5.5-.5h110.445c.276 0 .501.224.501.5z"></path><path d="m210.005 57.18c9.931-.344 9.923-14.659 0-15h-17.974c-4.143 0-7.5 3.358-7.5 7.5v44.346c.344 9.931 14.659 9.923 15 0v-15.093h9.046c9.931-.344 9.923-14.659 0-15h-9.046v-6.753z"></path><path d="m252.291 101.69c4.143 0 7.5-3.358 7.5-7.5v-37.173h4.885c9.931-.344 9.923-14.659 0-15h-24.671c-9.931.344-9.923 14.659 0 15h4.786v37.173c0 4.142 3.357 7.5 7.5 7.5z"></path><path d="m302.176 94.19v-11.945c30.965 3.135 34.436-38.258 4.939-40.229h-12.439c-4.143 0-7.5 3.358-7.5 7.5v44.674c.344 9.931 14.659 9.923 15 0zm10.293-32.066c0 2.768-2.451 5.106-5.354 5.106-.983 0-3.151.004-4.939.011v-10.224h4.939c2.903 0 5.354 2.338 5.354 5.107z"></path><path d="m498.5 424.866h-40.695c-6.323 0-11.629 4.375-13.088 10.252h-147.369v-4.252c0-7.444-6.056-13.5-13.5-13.5h-2.848v-21.748h100.26c9.931-.344 9.923-14.659 0-15h-314.57c-10.201 0-18.5-8.299-18.5-18.5v-259.81c0-4.687 3.813-8.5 8.5-8.5h64.779c2.771 0 5.37 1.345 6.955 3.604l18.939 26.929c3.27 4.65 8.621 7.427 14.315 7.427h293.63c4.687 0 8.5 3.813 8.5 8.5v221.85c0 10.201-8.299 18.5-18.5 18.5h-29.05c-9.931.344-9.923 14.659 0 15h29.05c18.472 0 33.5-15.028 33.5-33.5v-221.85c0-12.958-10.542-23.5-23.5-23.5h-11.508v-83.33c0-11.855-9.645-21.5-21.5-21.5h-283.08c-9.931.344-9.923 14.659 0 15h283.08c3.584 0 6.5 2.916 6.5 6.5v83.33h-267.12c-.816 0-1.58-.394-2.045-1.055l-18.936-26.923c-4.386-6.251-11.574-9.982-19.229-9.982h-38.27v-45.37c0-3.584 2.916-6.5 6.5-6.5h14.52c9.931-.344 9.923-14.659 0-15h-14.52c-11.855 0-21.5 9.645-21.5 21.5v45.37h-11.51c-12.958 0-23.5 10.542-23.5 23.5v259.81c0 18.472 15.028 33.5 33.5 33.5h164.31v21.748h-2.848c-7.444 0-13.5 6.056-13.5 13.5v4.252h-147.368c-1.46-5.877-6.766-10.252-13.089-10.252h-40.695c-7.444 0-13.5 6.056-13.5 13.5v40.696c0 7.444 6.056 13.5 13.5 13.5h40.695c6.323 0 11.63-4.376 13.089-10.254h147.368v4.254c0 7.444 6.056 13.5 13.5 13.5h55.695c7.444 0 13.5-6.056 13.5-13.5v-4.254h147.368c1.459 5.878 6.765 10.254 13.089 10.254h40.696c7.444 0 13.5-6.056 13.5-13.5v-40.696c0-7.444-6.056-13.5-13.5-13.5zm-445.805 52.696h-37.695v-37.696h37.695zm15-10.254v-17.19h146.957v17.19zm178.305-71.69h20v21.748h-20zm36.348 89.444h-52.695v-52.696h52.695zm15-34.944h146.957v17.19h-146.957zm199.652 27.444h-37.695v-37.696h37.695z"></path></g></g></svg>