<svg height="512pt" viewBox="0 -30 512 512" width="512pt" xmlns="http://www.w3.org/2000/svg" id="fi_1676699"><path d="m483.414062 131.15625-6.65625 45.140625-32.769531 222.976563-.253906 1.792968-.257813-1.878906c-5.035156 24.832031-87.039062 44.546875-187.476562 44.546875s-182.441406-19.714844-187.476562-44.546875l-.257813 1.878906-.253906-1.792968-32.769531-222.976563-6.65625-45.140625zm0 0" fill="#c81e1e"></path><path d="m460.800781 131.15625-6.246093 45.140625-30.738282 222.976563-.238281 1.792968-.242187-1.878906c-4.722657 24.832031-81.648438 44.546875-175.871094 44.546875-94.21875 0-171.144532-19.714844-175.871094-44.546875l-.238281 1.878906-.238281-1.792968-30.738282-222.976563-6.246094-45.140625zm0 0" fill="#f44335"></path><path d="m503.464844 59.734375v51.199219c0 6.65625-6.058594 12.96875-17.066406 18.773437-.96875.535157-1.964844 1.019531-2.984376 1.449219-9.976562 4.5625-20.34375 8.21875-30.976562 10.921875-45.226562 12.203125-116.394531 20.054687-196.4375 20.054687-101.972656 0-189.523438-12.800781-227.414062-30.976562-1.019532-.429688-2.015626-.914062-2.984376-1.449219-11.007812-5.804687-17.066406-12.117187-17.066406-18.773437v-51.199219zm0 0" fill="#bb193b"></path><path d="m477.867188 68.265625v51.199219c0 6.65625-6.058594 12.972656-17.066407 18.773437-.972656.535157-1.96875 1.019531-2.988281 1.453125-1.707031.851563-3.496094 1.621094-5.375 2.386719-45.226562 12.203125-116.394531 20.054687-196.4375 20.054687-101.972656 0-189.523438-12.800781-227.414062-30.976562-1.019532-.429688-2.015626-.914062-2.984376-1.449219-11.007812-5.804687-17.066406-12.117187-17.066406-18.773437v-42.667969zm0 0" fill="#ef314c"></path><path d="m349.867188 273.066406c-.070313 9.398438-7.667969 17-17.066407 17.066406h-153.601562c-9.414063-.027343-17.039063-7.652343-17.066407-17.066406.070313-9.398437 7.667969-17 17.066407-17.066406h153.601562c9.414063.027344 17.039063 7.652344 17.066407 17.066406zm0 0" fill="#545c60"></path><path d="m324.265625 273.066406c-.066406 9.398438-7.667969 17-17.066406 17.066406h-128c-9.414063-.027343-17.039063-7.652343-17.066407-17.066406.070313-9.398437 7.667969-17 17.066407-17.066406h128c9.414062.027344 17.039062 7.652344 17.066406 17.066406zm0 0" fill="#7f8e94"></path><path d="m503.464844 59.734375c0-28.277344-110.792969-51.199219-247.464844-51.199219s-247.464844 22.921875-247.464844 51.199219 110.792969 51.199219 247.464844 51.199219 247.464844-22.921875 247.464844-51.199219zm0 0" fill="#c81e1e"></path><path d="m470.273438 85.332031c-15.980469 5.421875-32.355469 9.585938-48.984376 12.460938-54.597656 9.257812-109.910156 13.65625-165.289062 13.140625-86.613281 0-162.816406-9.214844-207.019531-23.125-2.558594-.855469-4.949219-1.621094-7.253907-2.476563 42.839844-15.273437 122.710938-25.597656 214.273438-25.597656s171.433594 10.324219 214.273438 25.597656zm0 0" fill="#0377bc"></path><path d="m421.289062 97.792969c-54.597656 9.257812-109.910156 13.65625-165.289062 13.140625-86.613281 0-162.816406-9.214844-207.019531-23.125 54.601562-9.257813 109.914062-13.65625 165.292969-13.140625 86.613281 0 162.816406 9.214843 207.015624 23.125zm0 0" fill="#02a9f4"></path><path d="m256 119.464844c-88.546875 0-256-12.480469-256-59.730469s167.453125-59.734375 256-59.734375 256 12.484375 256 59.734375-167.453125 59.730469-256 59.730469zm0-102.398438c-154.601562 0-238.933594 28.183594-238.933594 42.667969s84.332032 42.664063 238.933594 42.664063 238.933594-28.179688 238.933594-42.664063-84.332032-42.667969-238.933594-42.667969zm0 0"></path><path d="m256 170.667969c-100.097656 0-190.816406-12.492188-231.105469-31.816407-1.144531-.492187-2.269531-1.039062-3.363281-1.644531-14.257812-7.523437-21.53125-16.375-21.53125-26.273437 0-4.714844 3.820312-8.535156 8.535156-8.535156 4.710938 0 8.53125 3.820312 8.53125 8.535156 0 2.132812 3.28125 6.347656 12.515625 11.222656.738281.417969 1.496094.789062 2.273438 1.117188 38.585937 18.5 126.398437 30.328124 224.144531 30.328124s185.558594-11.828124 223.722656-30.132812c.890625-.375 1.761719-.796875 2.609375-1.261719 9.320313-4.925781 12.601563-9.140625 12.601563-11.273437 0-4.714844 3.820312-8.535156 8.53125-8.535156 4.714844 0 8.535156 3.820312 8.535156 8.535156 0 9.898437-7.273438 18.75-21.617188 26.324218-1.105468.59375-2.402343 1.242188-3.703124 1.785157-39.863282 19.132812-130.578126 31.625-230.679688 31.625zm0 0"></path><path d="m470.273438 93.867188c-.976563 0-1.949219-.167969-2.867188-.492188-43.425781-15.492188-124.429688-25.109375-211.40625-25.109375s-167.980469 9.617187-211.402344 25.109375c-2.875 1.023438-6.074218.4375-8.398437-1.539062-2.324219-1.976563-3.417969-5.039063-2.867188-8.039063.550781-3.003906 2.65625-5.480469 5.53125-6.503906 45.140625-16.09375 128.339844-26.09375 217.136719-26.09375s171.996094 10 217.136719 26.09375c3.917969 1.390625 6.261719 5.398437 5.554687 9.492187-.707031 4.097656-4.261718 7.085938-8.417968 7.082032zm0 0"></path><path d="m256 452.265625c-89.304688 0-188.683594-16.074219-195.839844-51.371094-.9375-4.617187 2.042969-9.121093 6.664063-10.0625 4.617187-.9375 9.121093 2.046875 10.0625 6.664063 3.191406 15.746094 72.875 37.703125 179.113281 37.703125s175.921875-21.957031 179.113281-37.707031c.941407-4.617188 5.445313-7.601563 10.0625-6.664063 4.621094.941406 7.601563 5.445313 6.664063 10.0625-7.15625 35.300781-106.535156 51.375-195.839844 51.375zm0 0"></path><path d="m8.535156 119.464844c-4.714844 0-8.535156-3.820313-8.535156-8.53125v-51.199219c0-4.714844 3.820312-8.535156 8.535156-8.535156 4.710938 0 8.53125 3.820312 8.53125 8.535156v51.199219c0 4.710937-3.820312 8.53125-8.53125 8.53125zm0 0"></path><path d="m503.464844 119.464844c-4.710938 0-8.53125-3.820313-8.53125-8.53125v-51.199219c0-4.714844 3.820312-8.535156 8.53125-8.535156 4.714844 0 8.535156 3.820312 8.535156 8.535156v51.199219c0 4.710937-3.820312 8.53125-8.535156 8.53125zm0 0"></path><path d="m68.253906 409.601562c-4.246094-.007812-7.839844-3.132812-8.4375-7.335937l-.253906-1.792969-39.417969-268.074218c-.628906-4.632813 2.585938-8.910157 7.214844-9.59375 4.628906-.679688 8.941406 2.492187 9.671875 7.113281l39.683594 269.949219c.351562 2.449218-.382813 4.933593-2.007813 6.800781-1.621093 1.867187-3.976562 2.9375-6.453125 2.933593zm0 0"></path><path d="m443.746094 409.601562c-2.476563.003907-4.832032-1.066406-6.457032-2.933593-1.625-1.867188-2.355468-4.351563-2.003906-6.800781l.253906-1.792969 39.433594-268.15625c.730469-4.621094 5.042969-7.792969 9.667969-7.113281 4.628906.683593 7.847656 4.960937 7.214844 9.59375l-39.675781 269.867187c-.59375 4.203125-4.1875 7.328125-8.433594 7.335937zm0 0"></path><path d="m332.800781 298.667969h-153.601562c-14.136719 0-25.597657-11.460938-25.597657-25.601563 0-14.136718 11.460938-25.601562 25.597657-25.601562h153.601562c14.136719 0 25.597657 11.464844 25.597657 25.601562 0 14.140625-11.460938 25.601563-25.597657 25.601563zm-153.601562-34.132813c-4.710938 0-8.53125 3.820313-8.53125 8.53125 0 4.714844 3.820312 8.535156 8.53125 8.535156h153.601562c4.710938 0 8.53125-3.820312 8.53125-8.535156 0-4.710937-3.820312-8.53125-8.53125-8.53125zm0 0"></path><path d="m162.558594 277.84375c-.742188.003906-1.484375-.097656-2.203125-.289062-29.167969-7.507813-56.804688-20.039063-81.671875-37.035157-22.398438-15.109375-40.15625-36.152343-51.285156-60.773437-.101563-.230469-.1875-.464844-.265626-.703125-6.519531-15.59375-9.9375-32.308594-10.066406-49.210938-.035156-2.261719.832032-4.445312 2.410156-6.070312 1.578126-1.625 3.734376-2.554688 6-2.589844 2.28125-.101563 4.503907.742187 6.144532 2.335937s2.546875 3.789063 2.511718 6.074219c.097657 14.894531 3.136719 29.625 8.945313 43.34375.097656.222657.183594.457031.261719.691407 9.949218 21.46875 25.589844 39.796874 45.226562 52.992187 23.210938 15.808594 48.992188 27.46875 76.1875 34.457031 4.140625 1.105469 6.820313 5.105469 6.261719 9.351563-.554687 4.25-4.171875 7.425781-8.457031 7.425781zm0 0"></path><path d="m349.441406 277.84375c-4.28125 0-7.898437-3.175781-8.457031-7.417969-.558594-4.242187 2.113281-8.246093 6.246094-9.355469 28.410156-7.625 96.957031-31.402343 121.441406-87.484374.078125-.222657.160156-.449219.25-.65625 5.808594-13.71875 8.847656-28.449219 8.945313-43.347657-.015626-2.277343.902343-4.460937 2.535156-6.050781 1.632812-1.585938 3.84375-2.4375 6.121094-2.359375 2.265624.035156 4.421874.964844 6 2.589844 1.578124 1.625 2.445312 3.808593 2.410156 6.070312-.128906 16.914063-3.554688 33.640625-10.078125 49.242188-.074219.226562-.164063.460937-.257813.675781-26.238281 61.074219-94.554687 87.492188-132.9375 97.800781-.726562.195313-1.472656.292969-2.21875.292969zm0 0"></path><path d="m102.386719 392.535156c-4.296875-.007812-7.921875-3.210937-8.453125-7.476562l-8.023438-64.171875c-.503906-4.632813 2.800782-8.8125 7.425782-9.390625s8.859374 2.660156 9.507812 7.273437l8.023438 64.171875c.582031 4.675782-2.734376 8.941406-7.410157 9.523438-.355469.042968-.710937.066406-1.070312.070312zm0 0"></path><path d="m89.757812 291.5c-4.285156-.007812-7.898437-3.191406-8.445312-7.441406l-1.28125-9.902344c-.289062-2.242188.324219-4.511719 1.707031-6.304688 1.378907-1.792968 3.417969-2.960937 5.664063-3.25 4.660156-.554687 8.910156 2.726563 9.558594 7.375l1.277343 9.898438c.292969 2.246094-.324219 4.511719-1.703125 6.304688-1.382812 1.792968-3.421875 2.960937-5.667968 3.253906-.367188.042968-.738282.0625-1.109376.066406zm0 0"></path></svg>