<svg clip-rule="evenodd" fill-rule="evenodd" height="512" image-rendering="optimizeQuality" shape-rendering="geometricPrecision" text-rendering="geometricPrecision" viewBox="0 0 396 512.47" width="512" xmlns="http://www.w3.org/2000/svg" xmlns:xlink="http://www.w3.org/1999/xlink" id="fi_9073961"><linearGradient id="id0" gradientUnits="userSpaceOnUse" x1="178.05" x2="217.95" y1="120.69" y2="120.69"><stop offset="0" stop-color="#73573b"></stop><stop offset=".2" stop-color="#84684e"></stop><stop offset=".502" stop-color="#967a62"></stop><stop offset=".8" stop-color="#85694f"></stop><stop offset="1" stop-color="#73573b"></stop></linearGradient><g id="Layer_x0020_7"><path id="FileType" d="m12.01.05h300.15c5.85 0 8.37-.7 12.55 3.32 22.5 21.62 45 43.24 67.49 64.87 4.34 4.16 3.77 6 3.77 12v325.11h-395.97v-393.29c0-6.61 5.41-12.01 12.01-12.01z" fill="#ffe9bf"></path><path id="FileTypeTitle" d="m0 405.35h396v97.11c0 5.51-4.5 10.01-10.01 10.01h-375.98c-5.51 0-10.01-4.5-10.01-10.01z" fill="#73573b"></path><path id="FileTypeFold" d="m317.09.02c2.78.09 4.83.67 7.62 3.35 22.5 21.62 45 43.24 67.49 64.87 2.97 2.85 3.64 4.61 3.77 7.38h-66.87c-6.61 0-12.01-5.41-12.01-12.01z" fill="#e3c07f"></path></g><g id="Layer_x0020_8"><path id="TAR" d="m115.06 497.73v-64.51h-22.99v-13.12h61.59v13.12h-22.88v64.51zm110.67 0h-16.93l-6.71-17.67h-31.14l-6.45 17.67h-16.62l30.14-77.63h16.61zm-28.73-30.79-10.79-28.74-10.49 28.74zm37.1 30.79v-77.63h33.02c8.29 0 14.33.7 18.09 2.09 3.77 1.39 6.78 3.87 9.03 7.43 2.26 3.58 3.4 7.64 3.4 12.24 0 5.83-1.7 10.64-5.11 14.43-3.42 3.8-8.52 6.19-15.31 7.18 3.38 1.97 6.16 4.14 8.35 6.51 2.2 2.36 5.17 6.57 8.89 12.61l9.47 15.14h-18.74l-11.24-16.95c-4.03-6.02-6.8-9.81-8.3-11.38-1.48-1.56-3.05-2.64-4.71-3.22-1.68-.58-4.32-.87-7.94-.87h-3.18v32.42zm15.72-44.78h11.61c7.51 0 12.19-.32 14.07-.96 1.86-.63 3.35-1.73 4.39-3.29 1.07-1.55 1.59-3.5 1.59-5.83 0-2.62-.7-4.72-2.09-6.35-1.39-1.61-3.36-2.62-5.89-3.03-1.29-.18-5.1-.27-11.44-.27h-12.24z" fill="#ffe9bf" fill-rule="nonzero"></path></g><g id="Layer_x0020_9"><path id="ZipTape" d="m172.98.05h50.04v263.87c0 5.51-4.5 10.01-10 10.01h-30.03c-5.51 0-10.01-4.5-10.01-10.01z" fill="#e3c794"></path><path id="ZipChain" d="m183.05 8.06 18.43 3.98c2.69.58 5 2.25 5 5v2.03c0 2.75-2.32 4.42-5 5.01l-18.43 4.05c-2.69.6-5-2.25-5-5v-10.07c0-2.75 2.31-5.58 5-5zm6.47 25.12c0-2.75 2.31-4.42 5-5l18.43-3.99c2.69-.58 5 2.25 5 5.01v10.07c0 2.75-2.31 5.59-5 5l-18.43-4.06c-2.69-.59-5-2.25-5-5zm11.96 11.19c2.69.58 5 2.26 5 5.01v2.02c0 2.75-2.32 4.42-5 5.01l-18.43 4.06c-2.69.59-5-2.25-5-5.01v-10.07c0-2.75 2.31-5.58 5-5zm-11.96 21.14c0-2.75 2.31-4.42 5-5l18.43-3.99c2.69-.58 5 2.26 5 5.01v10.07c0 2.75-2.31 5.59-5 5l-18.43-4.05c-2.69-.59-5-2.26-5-5.01zm11.96 11.19c2.69.58 5 2.26 5 5.01v2.02c0 2.75-2.32 4.42-5 5.01l-18.43 4.06c-2.69.59-5-2.26-5-5.01v-10.07c0-2.75 2.31-5.58 5-5zm-11.96 21.14c0-2.75 2.31-4.42 5-5l18.43-3.99c2.69-.58 5 2.26 5 5.01v10.07c0 2.75-2.31 5.59-5 5l-18.43-4.05c-2.69-.59-5-2.26-5-5.01zm11.96 11.19c2.69.58 5 2.26 5 5.01v2.02c0 2.75-2.32 4.42-5 5.01l-18.43 4.06c-2.69.59-5-2.26-5-5.01v-10.07c0-2.75 2.31-5.58 5-5zm-11.96 21.14c0-2.75 2.31-4.42 5-5l18.43-3.99c2.69-.58 5 2.25 5 5.01v10.07c0 2.75-2.31 5.59-5 5l-18.43-4.05c-2.69-.59-5-2.26-5-5.01zm11.96 11.19c2.69.58 5 2.26 5 5.01v2.02c0 2.75-2.32 4.42-5 5.01l-18.43 4.06c-2.69.59-5-2.25-5-5.01v-10.07c0-2.75 2.31-5.58 5-5zm-11.96 21.14c0-2.75 2.31-4.42 5-5l18.43-3.99c2.69-.58 5 2.26 5 5.01v10.07c0 2.75-2.31 5.59-5 5l-18.43-4.05c-2.69-.59-5-2.26-5-5.01zm11.96 11.19c2.69.58 5 2.26 5 5.01v2.02c0 2.75-2.32 4.42-5 5.01l-18.43 4.06c-2.69.59-5-2.25-5-5.01v-10.07c0-2.75 2.31-5.58 5-5zm-11.96 21.14c0-2.75 2.31-4.42 5-5l18.43-3.99c2.69-.58 5 2.26 5 5.01v10.07c0 2.75-2.31 5.59-5 5l-18.43-4.05c-2.69-.59-5-2.26-5-5.01zm11.96 11.19c2.69.58 5 2.26 5 5.01v2.02c0 2.75-2.32 4.42-5 5.01l-18.43 4.06c-2.69.59-5-2.26-5-5.01v-10.07c0-2.75 2.31-5.58 5-5zm-11.96 21.14c0-2.75 2.31-4.42 5-5l18.43-3.99c2.69-.58 5 2.26 5 5.01v10.07c0 2.75-2.31 5.59-5 5l-18.43-4.05c-2.69-.59-5-2.26-5-5.01z" fill="#73573b"></path><path id="ZipChainGradient" d="m217.95.05v9.99c0 2.75-2.31 5.59-5 5l-18.43-4.05c-2.69-.59-5-2.26-5-5.01v-2.03c0-1.73.91-3.03 2.26-3.9h26.17zm-11.47 20v2.03c0 2.75-2.32 4.41-5 5l-18.43 4.06c-2.69.59-5-2.25-5-5.01v-10.07c0-2.75 2.31-5.58 5-5l18.43 3.98c2.69.58 5 2.26 5 5.01zm-16.96 16.13c0-2.75 2.31-4.42 5-5l18.43-3.98c2.69-.59 5 2.25 5 5v10.07c0 2.75-2.31 5.6-5 5l-18.43-4.05c-2.69-.59-5-2.26-5-5.01zm11.96 11.19c2.69.58 5 2.26 5 5.01v2.03c0 2.75-2.32 4.41-5 5l-18.43 4.06c-2.69.59-5-2.25-5-5.01v-10.07c0-2.75 2.31-5.58 5-5zm-11.96 21.15c0-2.75 2.31-4.43 5-5.01l18.43-3.98c2.69-.58 5 2.25 5 5v10.07c0 2.76-2.31 5.6-5 5.01l-18.43-4.06c-2.69-.59-5-2.26-5-5.01zm11.96 11.18c2.69.58 5 2.26 5 5.01v2.03c0 2.75-2.32 4.41-5 5l-18.43 4.06c-2.69.59-5-2.25-5-5.01v-10.07c0-2.75 2.31-5.58 5-5zm-11.96 21.15c0-2.75 2.31-4.43 5-5.01l18.43-3.98c2.69-.58 5 2.25 5 5v10.07c0 2.75-2.31 5.6-5 5.01l-18.43-4.06c-2.69-.59-5-2.26-5-5.01zm11.96 11.18c2.69.58 5 2.26 5 5.01v2.03c0 2.75-2.32 4.41-5 5l-18.43 4.06c-2.69.59-5-2.25-5-5.01v-10.07c0-2.75 2.31-5.58 5-5zm-6.96 16.14c-2.69.58-5 2.26-5 5.01v2.02c0 2.75 2.31 4.42 5 5.01l18.43 4.06c2.69.59 5-2.26 5-5.01v-10.07c0-2.75-2.31-5.58-5-5zm6.96 16.19c2.69.59 5 2.26 5 5.01v2.03c0 2.75-2.32 4.41-5 5l-18.43 4.06c-2.69.59-5-2.25-5-5.01v-10.07c0-2.75 2.31-5.58 5-5zm-11.96 21.15c0-2.75 2.31-4.43 5-5.01l18.43-3.98c2.69-.58 5 2.25 5 5v10.07c0 2.76-2.31 5.6-5 5.01l-18.43-4.06c-2.69-.59-5-2.26-5-5.01zm11.96 11.18c2.69.58 5 2.26 5 5.01v2.03c0 2.75-2.32 4.41-5 5l-18.43 4.06c-2.69.59-5-2.25-5-5.01v-10.07c0-2.75 2.31-5.58 5-5zm-11.96 21.15c0-2.75 2.31-4.43 5-5.01l18.43-3.98c2.69-.58 5 2.25 5 5v10.07c0 2.76-2.31 5.6-5 5.01l-18.43-4.06c-2.69-.59-5-2.26-5-5.01zm11.96 11.18c2.69.58 5 2.26 5 5.01v2.03c0 2.75-2.32 4.41-5 5l-18.43 4.06c-2.69.59-5-2.25-5-5.01v-10.07c0-2.75 2.31-5.58 5-5zm-11.96 21.15c0-2.75 2.31-4.43 5-5.01l18.43-3.98c2.69-.58 5 2.25 5 5v10.07c0 2.75-2.31 5.6-5 5.01l-18.43-4.06c-2.69-.59-5-2.26-5-5.01z" fill="url(#id0)"></path><rect id="ZipSlider" fill="#5e432c" height="40.62" rx="10.01" width="39.97" x="178.01" y="227.73"></rect><path id="ZipPull" d="m198 242.41c5.51 0 9.13 4.58 10.01 10.01l9.19 57.08c.87 5.43-4.51 10.01-10.01 10.01h-18.38c-5.5 0-10.88-4.58-10.01-10.01l9.19-57.08c.88-5.44 4.5-10.01 10.01-10.01zm-6.53 51.4h13.06c2.76 0 4.58 2.29 5.01 5l1.36 8.76c.43 2.72-2.25 5.01-5 5.01h-15.8c-2.75 0-5.43-2.29-5-5.01l1.37-8.76c.42-2.72 2.25-5 5-5zm4.89-42.34h3.28c2.76 0 5.01 2.25 5.01 5v5.74c0 2.76-2.25 5.01-5.01 5.01h-3.28c-2.76 0-5.01-2.25-5.01-5.01v-5.74c0-2.75 2.25-5 5.01-5z" fill="#73573b"></path><rect id="ZipSliderLoop" fill="#8f6e4d" height="34.61" rx="3" ry="2.56" width="11.34" x="192.33" y="230.73"></rect></g></svg>