<svg id="fi_8110738" enable-background="new 0 0 512 512" height="512" viewBox="0 0 512 512" width="512" xmlns="http://www.w3.org/2000/svg"><g><g><path d="m431.294 277.05h-350.588c-12.26 0-22.199-9.939-22.199-22.199v-225.152c0-12.26 9.939-22.199 22.199-22.199h105.023c7.821 0 15.065 4.115 19.069 10.833l18.2 30.536c4.004 6.718 11.248 10.833 19.069 10.833h189.227c12.26 0 22.199 9.939 22.199 22.199v172.949c0 12.261-9.938 22.2-22.199 22.2z" fill="#26a6fe"></path><g fill="#0593fc"><path d="m170.004 18.333 18.2 30.536c4.004 6.718 11.248 10.833 19.069 10.833h34.794c-7.821 0-15.065-4.115-19.069-10.833l-18.2-30.536c-4.004-6.718-11.248-10.833-19.069-10.833h-34.794c7.821 0 15.065 4.115 19.069 10.833z"></path><path d="m431.294 59.703h-34.794c12.26 0 22.199 9.939 22.199 22.199v172.949c0 12.26-9.939 22.199-22.199 22.199h34.794c12.26 0 22.199-9.939 22.199-22.199v-172.949c0-12.26-9.938-22.199-22.199-22.199z"></path></g><path d="m412.094 392.878h-140.502v-115.828h-30.439v115.827h-141.247c-8.406 0-15.22 6.814-15.22 15.22 0 8.406 6.814 15.22 15.22 15.22h312.188c8.406 0 15.22-6.814 15.22-15.22 0-8.405-6.814-15.219-15.22-15.219z" fill="#eaf6ff"></path><g><path d="m412.094 392.877h-30.015c8.406 0 15.22 6.814 15.22 15.22s-6.814 15.219-15.22 15.219h30.015c8.406 0 15.22-6.814 15.22-15.219 0-8.406-6.814-15.22-15.22-15.22z" fill="#d8ecfe"></path></g><g><path d="m256 504.5c-.553 0-1.382-.126-2.187-.723l-49.476-36.71c-8.361-6.203-13.353-16.122-13.353-26.534v-75.033c9.159-3.221 14.99-6.98 18.533-11.856 3.238-4.456 5.074-10.427 5.796-19.224h81.374c.722 8.798 2.558 14.768 5.796 19.225 3.543 4.876 9.372 8.634 18.532 11.855v75.033c0 10.411-4.991 20.33-13.352 26.534l-49.477 36.71c-.804.597-1.633.723-2.186.723z" fill="#bbec6c"></path></g><path d="m302.483 353.646c-3.239-4.457-5.074-10.427-5.796-19.225h-30.015c.722 8.798 2.557 14.768 5.796 19.225 2.792 3.842 7.004 6.99 13.146 9.728 3.258 1.453 5.386 4.655 5.386 8.223v68.937c0 10.459-4.953 20.301-13.352 26.533l-36.656 27.197 12.821 9.513c.805.597 1.634.723 2.187.723s1.382-.125 2.186-.723l49.476-36.709c8.4-6.233 13.353-16.074 13.353-26.534v-75.032c-9.159-3.222-14.989-6.98-18.532-11.856z" fill="#a2e62e"></path></g><g><path d="m431.294 52.203h-189.227c-5.151 0-9.989-2.749-12.627-7.174l-18.2-30.536c-5.328-8.939-15.103-14.493-25.511-14.493h-105.023c-16.376 0-29.699 13.323-29.699 29.699v225.152c0 16.376 13.323 29.699 29.699 29.699h152.944v42.371h-18.337c-3.904 0-7.155 2.995-7.475 6.886-.594 7.224-1.988 12.126-4.389 15.429-2.617 3.603-7.369 6.522-14.954 9.19-3.003 1.057-5.012 3.893-5.012 7.075v19.878h-83.573c-12.527 0-22.72 10.192-22.72 22.72 0 6.066 2.364 11.771 6.647 16.055 4.283 4.299 9.991 6.666 16.072 6.666h55.964c4.143 0 7.5-3.357 7.5-7.5s-3.357-7.5-7.5-7.5h-55.963c-2.064 0-3.999-.801-5.456-2.264-1.46-1.459-2.264-3.397-2.264-5.457 0-4.257 3.463-7.72 7.72-7.72h83.574v40.154c0 12.774 6.125 24.945 16.384 32.557l49.479 36.711c1.939 1.438 4.24 2.198 6.653 2.198s4.714-.76 6.655-2.199l49.477-36.71c10.259-7.612 16.384-19.782 16.384-32.557v-9.714h83.574c12.527 0 22.72-10.192 22.72-22.721 0-6.083-2.368-11.791-6.647-16.054-4.283-4.299-9.991-6.666-16.072-6.666h-83.574v-19.878c0-3.183-2.009-6.02-5.012-7.075-7.585-2.668-12.336-5.588-14.954-9.19-2.4-3.303-3.795-8.205-4.389-15.429-.319-3.891-3.57-6.886-7.475-6.886h-17.597v-42.371h75.254c4.143 0 7.5-3.357 7.5-7.5s-3.357-7.5-7.5-7.5h-273.638c-8.105 0-14.699-6.594-14.699-14.699v-225.151c0-8.105 6.594-14.699 14.699-14.699h105.023c5.151 0 9.989 2.748 12.626 7.173l18.2 30.536c5.328 8.94 15.104 14.494 25.512 14.494h189.227c8.105 0 14.699 6.594 14.699 14.698v172.95c0 8.105-6.594 14.699-14.699 14.699h-41.845c-4.143 0-7.5 3.357-7.5 7.5s3.357 7.5 7.5 7.5h41.845c16.376 0 29.699-13.323 29.699-29.699v-172.95c0-16.376-13.323-29.698-29.699-29.698zm-102.778 348.177h83.574c2.064 0 3.999.801 5.467 2.273 1.453 1.447 2.253 3.382 2.253 5.446 0 4.257-3.463 7.721-7.72 7.721h-83.574zm-79.866-115.829h15.439v42.371h-15.439zm41.431 57.371c1.18 6.657 3.243 11.88 6.335 16.134 3.742 5.149 9.243 9.212 17.1 12.578v69.9c0 8.048-3.858 15.715-10.321 20.51l-47.195 35.017-47.194-35.017c-6.463-4.795-10.321-12.462-10.321-20.51v-69.9c7.857-3.367 13.358-7.43 17.1-12.578 3.092-4.254 5.155-9.477 6.335-16.134z"></path><path d="m239.844 127.978c4.143 0 7.5-3.357 7.5-7.5s-3.357-7.5-7.5-7.5h-35.704c-4.143 0-7.5 3.357-7.5 7.5v88.094c0 4.143 3.357 7.5 7.5 7.5s7.5-3.357 7.5-7.5v-37.382h25.368c4.143 0 7.5-3.357 7.5-7.5s-3.357-7.5-7.5-7.5h-25.368v-28.213h28.204z"></path><path d="m147.18 201.721c-9.817 0-19.301-3.996-25.367-10.69-2.782-3.071-7.526-3.301-10.594-.521-3.069 2.781-3.303 7.524-.521 10.594 8.862 9.779 22.501 15.618 36.482 15.618 16.686 0 31.219-10.926 33.806-25.415 2.979-16.688-10.188-27.882-23.504-32.793-11.49-4.238-22.143-8.867-24.752-10.015-2.985-2.167-4.437-5.644-3.897-9.405.673-4.683 4.254-8.436 9.579-10.04 14.431-4.348 27.428 6.058 27.736 6.309 3.172 2.644 7.885 2.229 10.544-.935 2.665-3.171 2.256-7.902-.915-10.567-.777-.652-19.29-15.921-41.691-9.17-10.897 3.283-18.6 11.817-20.101 22.272-1.396 9.723 2.814 19.072 10.988 24.401.331.216.679.405 1.04.566.509.227 12.624 5.62 26.277 10.655 10.018 3.695 15.095 9.558 13.93 16.084-1.13 6.327-8.187 13.052-19.04 13.052z"></path><path d="m292.3 216.721c4.143 0 7.5-3.357 7.5-7.5v-81.243h17.104c4.143 0 7.5-3.357 7.5-7.5s-3.357-7.5-7.5-7.5h-49.009c-4.143 0-7.5 3.357-7.5 7.5s3.357 7.5 7.5 7.5h16.905v81.243c0 4.142 3.357 7.5 7.5 7.5z"></path><path d="m403.245 145.521c0-17.944-14.818-32.543-33.033-32.543h-24.711c-2.906-.317-7.883 3.264-7.5 7.5v88.743c0 4.143 3.357 7.5 7.5 7.5s7.5-3.357 7.5-7.5v-31.088c5.693-.031 13.279-.068 17.211-.068 18.215-.001 33.033-14.6 33.033-32.544zm-33.033 17.543c-3.912 0-11.394.036-17.081.067-.031-5.846-.068-13.618-.068-17.611 0-3.373-.021-11.46-.039-17.543h17.188c9.775 0 18.033 8.034 18.033 17.543 0 9.51-8.258 17.544-18.033 17.544z"></path><path d="m241.947 438.013c1.465 1.464 3.385 2.196 5.304 2.196s3.839-.732 5.304-2.196l34.616-34.616c2.929-2.93 2.929-7.678 0-10.607-2.93-2.928-7.678-2.928-10.607 0l-29.312 29.313-11.814-11.815c-2.93-2.928-7.678-2.928-10.607 0-2.929 2.93-2.929 7.678 0 10.607z"></path></g></g></svg>