<svg id="fi_14421786" viewBox="0 0 64 64" xmlns="http://www.w3.org/2000/svg" data-name="Layer 1"><path d="m39.124 2.5h-25.124a4 4 0 0 0 -4 4v50a4 4 0 0 0 4 4h36a4 4 0 0 0 4-4v-39.124z" fill="#ededed"></path><path d="m53.707 17.083-14.29-14.29a1 1 0 0 0 -1.707.707v11.29a4 4 0 0 0 4 4h11.29a1 1 0 0 0 .707-1.707z" fill="#c6c6c6"></path><path d="m53 43.393h-22.914l-2.4-2.745a2 2 0 0 0 -1.505-.683h-15.181a2 2 0 0 0 -2 2v14.535a5.006 5.006 0 0 0 5 5h36a5.006 5.006 0 0 0 5-5v-11.107a2 2 0 0 0 -2-2z" fill="#930556"></path><path d="m16.633 10.106v5.779h14.582v-5.779zm3.457 1.937h-2.357v-1.018h2.357z" fill="#c6c6c6"></path><path d="m16.633 18.381v5.779h14.582v-5.779zm3.457 1.937h-2.357v-1.018h2.357z" fill="#c6c6c6"></path><path d="m16.633 26.657v5.778h14.582v-5.778zm3.457 1.936h-2.357v-1.018h2.357z" fill="#c6c6c6"></path><g fill="#fff"><path d="m17.008 57.392a3.522 3.522 0 0 1 -1.738-.473 2.759 2.759 0 0 1 -.782-.622 3.692 3.692 0 0 1 -.583-.973l1.463-.638a4.2 4.2 0 0 0 .286.522 1.79 1.79 0 0 0 .352.4 1.5 1.5 0 0 0 .457.258 1.705 1.705 0 0 0 .589.093 2.319 2.319 0 0 0 .45-.043 1.2 1.2 0 0 0 .391-.149.734.734 0 0 0 .269-.286.933.933 0 0 0 .1-.456.8.8 0 0 0 -.418-.682 5.435 5.435 0 0 0 -1.112-.55 6.939 6.939 0 0 1 -1.9-1 1.93 1.93 0 0 1 -.66-1.551 2.01 2.01 0 0 1 .77-1.617 2.914 2.914 0 0 1 1.925-.638 3.26 3.26 0 0 1 1.739.473 2.625 2.625 0 0 1 .681.594 3.875 3.875 0 0 1 .539.924l-1.617.495a2.253 2.253 0 0 0 -.5-.765 1.18 1.18 0 0 0 -.852-.291 1.765 1.765 0 0 0 -.358.038 1.189 1.189 0 0 0 -.33.121.647.647 0 0 0 -.336.589.56.56 0 0 0 .105.319 1.056 1.056 0 0 0 .357.3 7.463 7.463 0 0 0 1.188.528 5.69 5.69 0 0 1 1.672.891 1.982 1.982 0 0 1 .782 1.694 2.311 2.311 0 0 1 -.771 1.858 3.28 3.28 0 0 1 -2.158.637z"></path><path d="m25.722 57.029a3.28 3.28 0 0 1 -1.669.363 3.527 3.527 0 0 1 -1.615-.336 2.917 2.917 0 0 1 -1.071-.913 3.8 3.8 0 0 1 -.593-1.342 7.264 7.264 0 0 1 0-3.223 3.8 3.8 0 0 1 .593-1.342 2.927 2.927 0 0 1 1.071-.913 3.54 3.54 0 0 1 1.615-.335 3.488 3.488 0 0 1 1.608.336 2.937 2.937 0 0 1 1.066.914 3.8 3.8 0 0 1 .592 1.344 6.978 6.978 0 0 1 .181 1.618 5.05 5.05 0 0 1 -.747 2.919.968.968 0 0 0 .341.166 3.181 3.181 0 0 0 .6.1v1.5a3.312 3.312 0 0 1 -1.1-.16 1.629 1.629 0 0 1 -.731-.511c-.057-.083-.104-.141-.141-.185zm.03-3.861a3.927 3.927 0 0 0 -.419-2.024 1.582 1.582 0 0 0 -2.571 0 5.084 5.084 0 0 0 0 4.047 1.388 1.388 0 0 0 1.291.661 1.438 1.438 0 0 0 .772-.165 1.453 1.453 0 0 0 -.381-.374 1.346 1.346 0 0 0 -.524-.2v-1.582a2.646 2.646 0 0 1 1.01.275 2.1 2.1 0 0 1 .7.605 5.247 5.247 0 0 0 .122-1.243z"></path><path d="m28.458 49.1h1.749v6.688h3.454v1.5h-5.2z"></path><path d="m34.783 49.1h1.749v8.184h-1.749z"></path><path d="m41.427 57.282h-1.748v-6.688h-2.069v-1.494h5.9v1.5h-2.083z"></path><path d="m44.419 49.1h5.489v1.5h-3.74v1.672h2.732v1.5l-2.728.011v2.013h3.868v1.5h-5.621z"></path></g></svg>